<svg xmlns="http://www.w3.org/2000/svg" viewBox="0 0 1080 1920" role="img" aria-labelledby="title desc">
  <title id="title">DAY 4 · 6/2 화 네즈 찍고 공항으로</title>
  <desc id="desc">실제 장소 사진으로 구성한 도쿄여행 day4 한눈에보기 카드</desc>
  <defs>
    <linearGradient id="paper" x1="0" x2="1" y1="0" y2="1"><stop stop-color="#fff8ec"/><stop offset=".58" stop-color="#f8ead7"/><stop offset="1" stop-color="#e8f2e5"/></linearGradient>
    <filter id="shadow"><feDropShadow dx="0" dy="18" stdDeviation="18" flood-color="#614b35" flood-opacity=".18"/></filter>
    <style>
      .kicker{font:800 34px 'IBM Plex Sans KR','Apple SD Gothic Neo',sans-serif;fill:#375447}
      .title{font:900 80px 'IBM Plex Sans KR','Apple SD Gothic Neo',sans-serif;fill:#3a7289;letter-spacing:-4px}
      .subtitle{font:800 30px 'IBM Plex Sans KR','Apple SD Gothic Neo',sans-serif;fill:#5d6b61}
      .photoLabel{font:900 27px 'IBM Plex Sans KR','Apple SD Gothic Neo',sans-serif;fill:#173f32}
      .node{font:900 30px 'IBM Plex Sans KR','Apple SD Gothic Neo',sans-serif;fill:#173f32}
      .num{font:900 27px 'IBM Plex Sans KR','Apple SD Gothic Neo',sans-serif;fill:#fff}
      .note{font:800 29px 'IBM Plex Sans KR','Apple SD Gothic Neo',sans-serif;fill:#6a5848}
      .stamp{font:900 28px 'IBM Plex Sans KR','Apple SD Gothic Neo',sans-serif;fill:#3a7289}
    </style>
  </defs>
  <rect width="1080" height="1920" fill="url(#paper)"/>
  <g opacity=".16" stroke="#c8aa8b" stroke-width="3">
    <path d="M84 372h912M84 520h912M84 668h912M84 816h912M84 964h912M84 1112h912M84 1260h912M84 1408h912M84 1556h912"/>
    <path d="M152 320v1270M300 320v1270M448 320v1270M596 320v1270M744 320v1270M892 320v1270"/>
  </g>
  <text class="kicker" x="92" y="116">DAY 4 · 6/2 화</text>
  <text class="title" x="92" y="220">네즈 찍고 공항으로</text>
  <text class="subtitle" x="92" y="282">숙소 체크아웃 → 네즈 미술관 → 네즈 카페 → 도쿄역 → 나리타공항</text>
  <g filter="url(#shadow)">
    
    <g transform="rotate(-4 276.0 555.0)">
      <rect x="72" y="406" width="408" height="346" rx="28" fill="#fffdf7" stroke="#dec9aa" stroke-width="4"/>
      <clipPath id="clip-0"><rect x="86" y="420" width="380" height="270" rx="20"/></clipPath>
      <image href="../card-photos/nezu-museum.webp" x="86" y="420" width="380" height="270" preserveAspectRatio="xMidYMid slice" clip-path="url(#clip-0)"/>
      <text class="photoLabel" x="104" y="736">네즈 미술관</text>
    </g>
    <g transform="rotate(4 790.0 581.0)">
      <rect x="596" y="442" width="388" height="326" rx="28" fill="#fffdf7" stroke="#dec9aa" stroke-width="4"/>
      <clipPath id="clip-1"><rect x="610" y="456" width="360" height="250" rx="20"/></clipPath>
      <image href="../card-photos/tokyo-station.webp" x="610" y="456" width="360" height="250" preserveAspectRatio="xMidYMid slice" clip-path="url(#clip-1)"/>
      <text class="photoLabel" x="628" y="752">도쿄역</text>
    </g>
    <g transform="rotate(3 287.0 882.0)">
      <rect x="98" y="746" width="378" height="320" rx="28" fill="#fffdf7" stroke="#dec9aa" stroke-width="4"/>
      <clipPath id="clip-2"><rect x="112" y="760" width="350" height="244" rx="20"/></clipPath>
      <image href="../card-photos/narita-airport.webp" x="112" y="760" width="350" height="244" preserveAspectRatio="xMidYMid slice" clip-path="url(#clip-2)"/>
      <text class="photoLabel" x="130" y="1050">나리타공항</text>
    </g>
  </g>
  <g transform="translate(0 0)"><circle cx="170" cy="1180" r="30" fill="#227455" stroke="#fff8ec" stroke-width="7"/><text class="num" x="170" y="1190" text-anchor="middle">1</text><text class="node" x="222" y="1190">숙소 체크아웃</text>
<path d="M170 1214 L170 1238" stroke="#227455" stroke-width="7" stroke-linecap="round" stroke-dasharray="1 16"/>
<circle cx="170" cy="1272" r="30" fill="#227455" stroke="#fff8ec" stroke-width="7"/><text class="num" x="170" y="1282" text-anchor="middle">2</text><text class="node" x="222" y="1282">네즈 미술관</text>
<path d="M170 1306 L170 1330" stroke="#227455" stroke-width="7" stroke-linecap="round" stroke-dasharray="1 16"/>
<circle cx="170" cy="1364" r="30" fill="#227455" stroke="#fff8ec" stroke-width="7"/><text class="num" x="170" y="1374" text-anchor="middle">3</text><text class="node" x="222" y="1374">네즈 카페</text>
<path d="M170 1398 L170 1422" stroke="#227455" stroke-width="7" stroke-linecap="round" stroke-dasharray="1 16"/>
<circle cx="170" cy="1456" r="30" fill="#227455" stroke="#fff8ec" stroke-width="7"/><text class="num" x="170" y="1466" text-anchor="middle">4</text><text class="node" x="222" y="1466">도쿄역</text>
<path d="M170 1490 L170 1514" stroke="#227455" stroke-width="7" stroke-linecap="round" stroke-dasharray="1 16"/>
<circle cx="170" cy="1548" r="30" fill="#227455" stroke="#fff8ec" stroke-width="7"/><text class="num" x="170" y="1558" text-anchor="middle">5</text><text class="node" x="222" y="1558">나리타공항</text></g>
  <rect x="70" y="1518" width="940" height="188" rx="34" fill="#fffdf7" stroke="#dec9aa" stroke-width="4"/>
  <text class="stamp" x="92" y="1568">CHECK</text>
  <text class="note" x="92" y="1600">15:30-16:00 NRT 도착 목표</text><text class="note" x="92" y="1650">공항 시간이 최우선</text>
  <text class="subtitle" x="540" y="1818" text-anchor="middle">Tokyo Trip · 2026</text>
</svg>
